<?xml version="1.0" encoding="iso-8859-1"?>
<!-- Generator: Adobe Illustrator 18.0.0, SVG Export Plug-In . SVG Version: 6.00 Build 0)  -->
<!DOCTYPE svg PUBLIC "-//W3C//DTD SVG 1.1//EN" "http://www.w3.org/Graphics/SVG/1.1/DTD/svg11.dtd">
<svg version="1.1" id="Capa_1" xmlns="http://www.w3.org/2000/svg" xmlns:xlink="http://www.w3.org/1999/xlink" x="0px" y="0px"
	 viewBox="0 0 303.454 303.454" style="enable-background:new 0 0 303.454 303.454;" xml:space="preserve">
<g>
	<polygon points="266.708,103.74 303.454,140.486 303.454,103.74 	"/>
	<path d="M210.138,103.74h-47.93l60.812,60.812h-56.57l-60.812-60.812h-50.93l60.812,60.812H58.95L6.429,112.031
		c-0.624,1.539-0.975,3.218-0.975,4.981v165.134c0,9.205,7.462,16.667,16.667,16.667h264.666c9.205,0,16.667-7.462,16.667-16.667
		V164.552H270.95L210.138,103.74z"/>
	<polygon points="253.32,4.641 202.915,11.944 151.45,80.846 201.856,73.544 	"/>
	<polygon points="146.93,20.055 99.495,26.927 48.03,95.83 95.466,88.957 	"/>
	<path d="M299.973,45.918l-4.477-30.902l-37.657,50.417l30.902-4.477C295.995,59.905,301.024,53.173,299.973,45.918z"/>
	<path d="M43.51,35.038l-32.14,4.656C4.117,40.745-0.912,47.478,0.139,54.732l4.086,28.204l0.57,3.936l13.298-17.804L43.51,35.038z"
		/>
</g>
<g>
</g>
<g>
</g>
<g>
</g>
<g>
</g>
<g>
</g>
<g>
</g>
<g>
</g>
<g>
</g>
<g>
</g>
<g>
</g>
<g>
</g>
<g>
</g>
<g>
</g>
<g>
</g>
<g>
</g>
</svg>
