<?xml version="1.0" encoding="utf-8"?>
<!-- Generator: Adobe Illustrator 19.2.1, SVG Export Plug-In . SVG Version: 6.00 Build 0)  -->
<svg version="1.1" id="layer" xmlns="http://www.w3.org/2000/svg" xmlns:xlink="http://www.w3.org/1999/xlink" x="0px" y="0px"
	 viewBox="0 0 652 652" style="enable-background:new 0 0 652 652;" xml:space="preserve">
<style type="text/css">
	.st0{fill:#00ACE9;}
</style>
<polygon class="st0" points="228.3,358.3 212.7,299.7 229.3,299.7 237.6,343.7 237.8,343.7 246.4,299.7 262.5,299.7 246.3,358.3 "/>
<g>
	<path class="st0" d="M304.6,289.8h-12.9v-12.5h12.9V289.8z M284,289.8h-12.9v-12.5H284V289.8z M279.6,340.1c0,4.2,0.7,9.3,6.1,9.3
		c9.7,0,8.1-13,8.1-19.4C285.7,330.3,279.6,329.6,279.6,340.1 M309.9,347.4c0,3.6,0.5,7.3,0.8,10.9h-15.2l-0.7-7.8h-0.2
		c-3.5,6-8.3,8.9-15.4,8.9c-11.4,0-15.6-8.5-15.6-18.7c0-19.4,15-20.2,30.2-20v-4.5c0-5-0.7-8.6-6.6-8.6c-5.7,0-6.2,4.3-6.2,8.9H265
		c0-7.1,2.2-11.6,6-14.3c3.7-2.8,9.1-3.8,15.4-3.8c20.8,0,23.5,8.9,23.5,19.6V347.4z"/>
	<path class="st0" d="M331.6,339.5c-0.1,2.7,0,5.2,0.8,7.1c0.9,1.9,2.7,2.8,5.9,2.8c3.3,0,6-2.1,6-6c0-12.4-28.9-9.6-28.9-28.3
		c0-12.6,12.6-16.5,23.2-16.5c11.2,0,21.3,5.3,20.4,18H343c0-4.1-0.5-6.5-1.6-7.5c-1-1-2.4-1.3-4.2-1.3c-3.6,0-5.6,2.3-5.6,6.3
		c0,9.3,28.9,8.8,28.9,27.6c0,10.2-8.4,17.9-22,17.9c-14.3,0-23.8-3.6-22.9-19.9H331.6z"/>
	<path class="st0" d="M362.1,299.7h6.6v-9.3l16.4-7.3v16.6h8.5v10.1h-8.5v31.3c0,4.4-0.1,7.3,5.2,7.3c1,0,2.1,0,2.9-0.2v10.1
		c-2.2,0.2-4.5,0.6-8.5,0.6c-14.2,0-16.1-9.4-16.1-13v-36.1h-6.6V299.7z"/>
	<path class="st0" d="M393.4,299.7h6.6v-9.3l16.4-7.3v16.6h8.5v10.1h-8.5v31.3c0,4.4-0.1,7.3,5.2,7.3c1,0,2.1,0,2.9-0.2v10.1
		c-2.2,0.2-4.5,0.6-8.5,0.6c-14.2,0-16.1-9.4-16.1-13v-36.1h-6.6V299.7z"/>
	<path class="st0" d="M446.9,299.7v7.5h0.2c3-6.7,8.6-8.7,15.2-8.7v14.6c-14.4-0.9-14.7,7.4-14.7,13.2v31.9h-16.4v-58.6H446.9z"/>
	<path class="st0" d="M509.2,347.4c0,3.6,0.5,7.3,0.8,10.9h-15.2l-0.7-7.8h-0.2c-3.5,6-8.3,8.9-15.4,8.9c-11.4,0-15.6-8.5-15.6-18.7
		c0-19.4,15-20.2,30.2-20v-4.5c0-5-0.7-8.6-6.6-8.6c-5.7,0-6.2,4.3-6.2,8.9h-16c0-7.1,2.2-11.6,6-14.3c3.7-2.8,9.1-3.8,15.4-3.8
		c20.8,0,23.5,8.9,23.5,19.6V347.4z M479,340.1c0,4.2,0.7,9.3,6.1,9.3c9.7,0,8.1-13,8.1-19.4C485,330.3,479,329.6,479,340.1"/>
	<path class="st0" d="M543.8,290.2c-7,0-7.8,0.8-7.8,5.2l0,4.2h7.8v10.6H536v48h-16.4v-48h-7.4v-10.6h7.4
		c-0.1-16.8-1.4-22.9,18.7-22.9c2,0,3.6,0.1,5.6,0.2V290.2z"/>
	<path class="st0" d="M566.9,358.3h-16.4v-58.6h16.4V358.3z M566.9,290.2h-16.4v-12.9h16.4V290.2z"/>
</g>
<g>
	<polygon class="st0" points="575.4,358.3 575.3,277.3 591.8,277.3 591.8,324.4 592.1,324.4 606.8,299.7 623.9,299.7 607.3,325.8 
		625.8,358.3 607.3,358.3 592.1,326.4 591.8,326.4 591.8,358.3 	"/>
	<path class="st0" d="M205.2,299.4c-37.4,2.4-62.5,27.7-62.5,27.7c-5.2-5.1-10.4-9.6-15.6-13.6c5.3-11.4,9.3-25.2,10.5-41.7
		c0,0,26.1,5.2,38.4,29.9c2.6-0.6,5.4-1.2,8.2-1.6c-10.4-22.2-33-37.6-59.2-37.6c-20.5,0-38.8,9.4-50.8,24.2
		c-28.2-7.6-48.4-3.2-48.4-3.2c87.3,17.7,116.6,90.4,116.6,90.4c12.4-29.2,26.6-47.3,38.3-58.4c0.8,3.6,1.3,7.4,1.4,11.6
		c0,0,1.2,20.6-13.5,36.8c0,0-15.4,20.6-43.6,20.2c0,0-26.7,1.6-45.3-22.2c0,0,16-6.5,31.2-23.8c-2.2-2-4.3-4-6.5-5.9
		c-7.4,8.4-16.9,16.3-29.3,22.6c0,0-13.5-21.2-3.6-47.5c-2.4-1.6-4.8-3.1-7.1-4.5c-3.1,7.6-4.9,16-4.9,24.7
		c0,36,29.3,65.2,65.4,65.2c36.1,0,65.4-29.2,65.4-65.2c0-6.3-0.9-12.4-2.6-18.1C198,301.5,205.2,299.4,205.2,299.4 M82.7,289.3
		c8.4-9.3,23.2-19.9,46.4-18.7c0,0-0.1,17.4-9.2,37.6C106.9,299.2,94.3,293.2,82.7,289.3"/>
</g>
</svg>
