<svg height="512" viewBox="0 0 64 64" width="512" xmlns="http://www.w3.org/2000/svg"><g id="Filled_outline" data-name="Filled outline"><circle cx="32" cy="22" fill="#32b1cc" r="19"/><path d="m27 11 3-2-2-1h-2l-5 1-2.458-.41a18.7 18.7 0 0 0 -5.349 15.972l2.807-.562 1-1 4 1 4 2 2-2 2-4h-3l-1-2-3-1-2-2 3-3z" fill="#c8d952"/><path d="m51 22a18.928 18.928 0 0 0 -5.8-13.649l-2.2 1.649-3 1-4-1-2 3-4 2 4 2 2 2 5-4h4l-2 3-3 3 6 2-.17 12a18.915 18.915 0 0 0 5.17-13z" fill="#c8d952"/><path d="m35 31-1-2h-5l-5 3-4-2-2.955 3.693a18.95 18.95 0 0 0 14.955 7.307 19.152 19.152 0 0 0 2-.107v-2.893l4-2 3-4-2-3z" fill="#c8d952"/><path d="m9 22h-2a23.973 23.973 0 0 1 10.416-19.812l1.168 1.624a22.019 22.019 0 0 0 -9.584 18.188z" fill="#7fcac9"/><path d="m46.611 41.791-1.222-1.582c6.018-4.652 9.611-11.459 9.611-18.209h2c0 7.365-3.883 14.764-10.389 19.791z" fill="#7fcac9"/><path d="m3 41h58v20h-58z" fill="#e1462b"/><path d="m23 56h-3.693l-3-8h-.307v8h-2v-10h3.693l3 8h.307v-8h2z" fill="#fcf05a"/><path d="m41 56h-2a1 1 0 0 1 -.929-.628l-1.071-2.68-1.071 2.68a1 1 0 0 1 -.929.628h-2a1 1 0 0 1 -1-1v-9h2v8h.323l1.748-4.372a1 1 0 0 1 1.858 0l1.748 4.372h.323v-8h2v9a1 1 0 0 1 -1 1z" fill="#fcf05a"/><path d="m30 56h-5v-10h5v2h-3v6h3z" fill="#fcf05a"/><path d="m26 50h4v2h-4z" fill="#fcf05a"/><path d="m49 56h-5v-2h4v-2h-3a1 1 0 0 1 -1-1v-4a1 1 0 0 1 1-1h5v2h-4v2h3a1 1 0 0 1 1 1v4a1 1 0 0 1 -1 1z" fill="#fcf05a"/><path d="m3 46h9v2h-9z" fill="#143441"/><path d="m3 54h9v2h-9z" fill="#143441"/><path d="m52 46h9v2h-9z" fill="#143441"/><path d="m52 54h9v2h-9z" fill="#143441"/><g fill="#7fcac9"><path d="m7 24h2v2h-2z"/><path d="m55 18h2v2h-2z"/><path d="m53 14h2v2h-2z"/><path d="m52 10h2v2h-2z"/><path d="m50 6h2v2h-2z"/><path d="m8 28h2v2h-2z"/><path d="m10 32h2v2h-2z"/><path d="m13 35h2v2h-2z"/></g><path d="m18.584 3.812-1.168-1.624a23.973 23.973 0 0 0 -10.416 19.812h2a22.019 22.019 0 0 1 9.584-18.188z"/><path d="m61 40h-12.3a25.1 25.1 0 0 0 8.3-18h-2c0 6.652-3.495 13.354-9.355 18h-4.985a20 20 0 1 0 -17.32 0h-20.34a1 1 0 0 0 -1 1v20a1 1 0 0 0 1 1h58a1 1 0 0 0 1-1v-20a1 1 0 0 0 -1-1zm-11-18a17.89 17.89 0 0 1 -3.129 10.124l.129-9.11a1 1 0 0 0 -.684-.963l-4.465-1.488 1.856-1.856a1.011 1.011 0 0 0 .125-.152l2-3a1 1 0 0 0 -.832-1.555h-4a1 1 0 0 0 -.625.219l-4.3 3.441-1.367-1.367a1.028 1.028 0 0 0 -.26-.188l-2.212-1.105 2.211-1.1a1.01 1.01 0 0 0 .385-.34l1.609-2.414 3.316.829a1 1 0 0 0 .559-.021l3-1a1.015 1.015 0 0 0 .284-.154l1.49-1.117a17.915 17.915 0 0 1 4.91 12.317zm-36 0a17.917 17.917 0 0 1 4.924-12.332l1.911.318a.953.953 0 0 0 .365-.006l4.9-.98h1.665l.248.124-1.423.948-3.832.958a1 1 0 0 0 -.464.263l-3 3a1 1 0 0 0 0 1.414l2 2a1.013 1.013 0 0 0 .391.242l2.607.869.814 1.629a1 1 0 0 0 .894.553h1.382l-1.2 2.408-1.382 1.375-3.356-1.678a1 1 0 0 0 -.2-.075l-4-1a1 1 0 0 0 -.95.263l-.786.786-1.438.287c-.035-.452-.07-.905-.07-1.366zm3.076 10.054a17.921 17.921 0 0 1 -2.751-6.7l1.875-.374a.991.991 0 0 0 .511-.273l.6-.6 3.344.836 3.9 1.952a1.011 1.011 0 0 0 .445.105 1 1 0 0 0 .707-.293l2-2a1.028 1.028 0 0 0 .188-.26l2-4a1 1 0 0 0 -.895-1.447h-2.382l-.718-1.447a1 1 0 0 0 -.579-.5l-2.776-.925-1.131-1.128 2.1-2.1 3.732-.933a1 1 0 0 0 .312-.138l3-2a1 1 0 0 0 -.108-1.727l-2-1a1 1 0 0 0 -.45-.102h-2a.925.925 0 0 0 -.2.02l-4.821.963-.2-.034a17.921 17.921 0 0 1 22.846.332l-1.095.819-2.57.856-3.717-.926a1 1 0 0 0 -1.075.415l-1.853 2.779-3.762 1.881a1 1 0 0 0 0 1.79l3.855 1.927 1.885 1.885a1 1 0 0 0 1.332.074l4.726-3.781h1.78l-.908 1.363-2.93 2.93a1 1 0 0 0 .391 1.656l5.306 1.768-.154 10.883a17.955 17.955 0 0 1 -9.836 5.129v-1.111l3.447-1.718a1.008 1.008 0 0 0 .353-.3l3-4a1 1 0 0 0 .032-1.155l-2-3a1 1 0 0 0 -1.279-.34l-3.106 1.553-.547-1.105a1 1 0 0 0 -.9-.553h-5a1 1 0 0 0 -.515.143l-4.529 2.717-3.509-1.755a1 1 0 0 0 -1.228.27zm1.258 1.629 1.942-2.427 3.277 1.644a1 1 0 0 0 .962-.038l4.762-2.862h4.1l.723 1.447a1 1 0 0 0 1.342.448l3.211-1.606 1.117 1.677-2.433 3.245-3.784 1.889a1 1 0 0 0 -.553.9v1.949c-.333.019-.662.051-1 .051a17.955 17.955 0 0 1 -13.666-6.317zm41.666 12.317h-8v2h8v6h-8v2h8v4h-56v-4h8v-2h-8v-6h8v-2h-8v-4h56z"/><path d="m16 48h.307l3 8h3.693v-10h-2v8h-.307l-3-8h-3.693v10h2z"/><path d="m33 56h2a1 1 0 0 0 .929-.628l1.071-2.68 1.071 2.68a1 1 0 0 0 .929.628h2a1 1 0 0 0 1-1v-9h-2v8h-.323l-1.748-4.372a1 1 0 0 0 -1.858 0l-1.748 4.372h-.323v-8h-2v9a1 1 0 0 0 1 1z"/><path d="m30 54h-3v-2h3v-2h-3v-2h3v-2h-5v10h5z"/><path d="m50 55v-4a1 1 0 0 0 -1-1h-3v-2h4v-2h-5a1 1 0 0 0 -1 1v4a1 1 0 0 0 1 1h3v2h-4v2h5a1 1 0 0 0 1-1z"/><path d="m7 24h2v2h-2z"/><path d="m55 18h2v2h-2z"/><path d="m53 14h2v2h-2z"/><path d="m52 10h2v2h-2z"/><path d="m50 6h2v2h-2z"/><path d="m8 28h2v2h-2z"/><path d="m10 32h2v2h-2z"/><path d="m13 35h2v2h-2z"/></g></svg>