<?xml version="1.0" encoding="iso-8859-1"?>
<!-- Generator: Adobe Illustrator 19.0.0, SVG Export Plug-In . SVG Version: 6.00 Build 0)  -->
<svg version="1.1" id="Capa_1" xmlns="http://www.w3.org/2000/svg" xmlns:xlink="http://www.w3.org/1999/xlink" x="0px" y="0px"
	 viewBox="0 0 383.378 383.378" style="enable-background:new 0 0 383.378 383.378;" xml:space="preserve">
<polygon style="fill:#52C2EA;" points="294.4,191.689 238.8,128.089 82.4,128.089 44.4,191.689 "/>
<polygon style="fill:#79D0E8;" points="82.4,128.089 44.4,191.689 74.4,191.689 112.4,128.089 "/>
<polygon style="fill:#E6E9EE;" points="169.2,123.689 145.6,78.889 114,78.889 114,123.689 "/>
<rect x="114" y="78.889" style="fill:#FFFFFF;" width="17.6" height="44.8"/>
<path style="fill:#E6E9EE;" d="M309.2,262.089l67.2-70.4h-354c0,0-1.6,76,55.2,76c0,0,9.6-2.4,24.8-12.8c15.2-10,37.2-18,52.8-8.4
	s31.2,22.8,44,21.2c12.8-1.6,32-8.4,48.4-19.6C264.4,236.889,297.2,246.089,309.2,262.089z"/>
<path style="fill:#FFFFFF;" d="M52.4,191.689H22c0,0-1.6,76,55.2,76c0,0,3.6-0.8,10-4C51.2,248.089,52.4,191.689,52.4,191.689z"/>
<g>
	<path style="fill:#424953;" d="M376.4,185.689h-79.2l-53.6-61.6c-1.2-1.2-2.8-2-4.8-2h-63.6c0-0.4,0-0.8-0.4-1.2l-23.6-45.2
		c-1.2-2-3.2-3.2-5.6-3.2H114c-3.6,0-6.4,2.8-6.4,6.4v43.2H82.4c-2.4,0-4.4,1.2-5.6,3.2l-36,60.8H22.4c-3.6,0-6.4,2.8-6.4,6
		c0,1.2-0.4,26,9.6,47.6c-5.2-2-11.2-3.2-19.2-3.2c-3.6,0-6.4,2.8-6.4,6.4s2.8,6.4,6.4,6.4c14,0,20.8,5.2,28.8,11.2
		c8.4,6.4,18,14,36.4,14c0.8,0,1.6,0,2.8,0s2,0,3.2,0c0.8,0,2-0.4,2.8-0.8c12.8-2,20.8-8,28-13.2c8-6,14.4-11.2,28.8-11.2
		c14,0,20.8,5.2,28.8,11.2c8.4,6.4,18,14,36.4,14s28-7.6,36.4-14c8-6,14.4-11.2,28.8-11.2c14,0,20.8,5.2,28.8,11.2
		c8.4,6.4,18,14,36.4,14c3.6,0,6.4-2.8,6.4-6.4s-2.8-6.4-6.4-6.4c-4.8,0-8.4-0.8-12-1.6l60.8-63.6c1.6-2,2.4-4.4,1.2-6.8
		C381.2,186.889,379.2,185.689,376.4,185.689z M141.6,85.289l2.4,4.8h-24v-4.8H141.6z M120.4,102.489h30.8l10,19.2h-40.8V102.489z
		 M86,134.489h150l20,23.2H72.4L86,134.489z M64.8,170.089h202.4l13.6,15.6H55.6L64.8,170.089z M308.4,253.689
		c-1.6-1.2-3.2-2.4-4.8-3.6c-8.4-6.4-18-14-36.4-14c-18.4,0-28,7.6-36.4,14c-8,6-14.4,11.2-28.8,11.2c-14,0-20.8-5.2-28.8-11.2
		c-8.4-6.4-18-14-36.4-14s-28,7.6-36.4,14c-7.2,5.6-13.6,10.4-26,11.2c-10.8-0.8-20-4.4-27.2-11.6c-14.4-14.8-18-39.6-18.8-51.2
		h332.8L308.4,253.689z"/>
	<path style="fill:#424953;" d="M71.6,310.889c18.4,0,28-7.6,36.4-14c8-6,14.4-11.2,28.8-11.2c14,0,20.8,5.2,28.8,11.2
		c8.4,6.4,18,14,36.4,14s28-7.6,36.4-14c8-6,14.4-11.2,28.8-11.2c14,0,20.8,5.2,28.8,11.2c8.4,6.4,18,14,36.4,14
		c3.6,0,6.4-2.8,6.4-6.4s-2.8-6.4-6.4-6.4c-14,0-20.8-5.2-28.8-11.2c-8.4-6.4-18-14-36.4-14c-18.4,0-28,7.6-36.4,14
		c-8,6-14.4,11.2-28.8,11.2c-14,0-20.8-5.2-28.8-11.2c-8.4-6.4-18-14-36.4-14s-28,7.6-36.4,14c-8,6-14.4,11.2-28.8,11.2
		c-14,0-20.8-5.2-28.8-11.2c-8.4-6.4-18-14-36.4-14c-3.6,0-6.4,2.8-6.4,6.4s2.8,6.4,6.4,6.4c14,0,20.8,5.2,28.8,11.2
		C43.6,303.689,53.2,310.889,71.6,310.889z"/>
</g>
<g>
</g>
<g>
</g>
<g>
</g>
<g>
</g>
<g>
</g>
<g>
</g>
<g>
</g>
<g>
</g>
<g>
</g>
<g>
</g>
<g>
</g>
<g>
</g>
<g>
</g>
<g>
</g>
<g>
</g>
</svg>
