<?xml version="1.0" encoding="iso-8859-1"?>
<!-- Generator: Adobe Illustrator 19.0.0, SVG Export Plug-In . SVG Version: 6.00 Build 0)  -->
<svg version="1.1" id="Capa_1" xmlns="http://www.w3.org/2000/svg" xmlns:xlink="http://www.w3.org/1999/xlink" x="0px" y="0px"
	 viewBox="0 0 352.4 352.4" style="enable-background:new 0 0 352.4 352.4;" xml:space="preserve">
<path style="fill:#6598D1;" d="M295,277.2c0,19.6-16,35.6-35.6,35.6H93c-19.6,0-35.6-16-35.6-35.6V42c0-19.6,16-35.6,35.6-35.6h166
	c19.6,0,35.6,16,35.6,35.6v235.2H295z"/>
<path style="fill:#7EA8CE;" d="M86.6,277.2V42c0-19.6,16-35.6,35.6-35.6H93c-19.6,0-35.6,16-35.6,35.6v235.2
	c0,19.6,16,35.6,35.6,35.6h29.2C102.6,312.8,86.6,296.8,86.6,277.2z"/>
<g>
	<rect x="81" y="233.6" style="fill:#FFCE57;" width="53.2" height="26.4"/>
	<rect x="215" y="234.8" style="fill:#FFCE57;" width="53.2" height="26.4"/>
</g>
<rect x="57.4" y="66.8" style="fill:#A7D9E8;" width="237.2" height="144.8"/>
<g>
	<polygon style="fill:#C3DFE5;" points="169,66.8 94.6,212 104.6,212 179,66.8 	"/>
	<polygon style="fill:#C3DFE5;" points="192.6,66.8 118.6,212 128.2,212 202.6,66.8 	"/>
	<polygon style="fill:#C3DFE5;" points="266.2,66.8 191.8,212 201.8,212 275.8,66.8 	"/>
	<rect x="57.4" y="66.8" style="fill:#C3DFE5;" width="29.2" height="144.8"/>
</g>
<g>
	<path style="fill:#424953;" d="M136.2,229.6H81.8c-3.6,0-6.4,2.8-6.4,6.4v24c0,3.6,2.8,6.4,6.4,6.4h54.4c3.6,0,6.4-2.8,6.4-6.4v-24
		C142.2,232.4,139.4,229.6,136.2,229.6z M88.2,242.4h14.4v11.2H88.2V242.4z M129.8,253.6h-14.4v-11.2h14.4V253.6z"/>
	<path style="fill:#424953;" d="M275.4,260v-24c0-3.6-2.8-6.4-6.4-6.4h-54.4c-3.6,0-6.4,2.8-6.4,6.4v24c0,3.6,2.8,6.4,6.4,6.4H269
		C272.6,266.4,275.4,263.6,275.4,260z M221,242.4h14.4v11.2H221V242.4z M262.6,253.6h-14.4v-11.2h14.4V253.6z"/>
	<path style="fill:#424953;" d="M151.8,40H199c3.6,0,6.4-2.8,6.4-6.4s-2.8-6.4-6.4-6.4h-47.2c-3.6,0-6.4,2.8-6.4,6.4
		C145.4,36.8,148.2,40,151.8,40z"/>
	<path style="fill:#424953;" d="M22.6,78.8V126c0,11.2,9.2,20.4,20.4,20.4h8v117.2v13.2v58.4c0,9.6,7.6,17.2,17.2,17.2H119
		c9.6,0,17.2-7.6,17.2-17.2v-16.4h80v16.4c0,9.6,7.6,17.2,17.2,17.2h50.8c9.6,0,17.2-7.6,17.2-17.2v-58V264V146.8h8
		c11.2,0,20.4-9.2,20.4-20.4V78.8c0-11.2-9.2-20.4-20.4-20.4h-8V42c0-23.2-18.8-42-42-42H93C69.8,0,51,18.8,51,42v16.4h-8
		C31.8,58.4,22.6,67.6,22.6,78.8z M43.4,134c-4.4,0-8-3.6-8-8V78.8c0-4.4,3.6-8,8-8h8V134H43.4L43.4,134z M93,306.4
		c-16,0-29.2-13.2-29.2-29.2V264v-46h222.8c0.8,0,1.2,0,2-0.4v46v13.2c0,16-13.2,29.2-29.2,29.2H93V306.4z M288.6,206
		c-0.8,0-1.2-0.4-2-0.4h-12.8l-93.2-60.8c-2.8-2-6.8-1.2-8.8,2c-2,2.8-1.2,6.8,2,8.8l77.2,50h-73.6l-93.6-60.8c-2.8-2-6.8-1.2-8.8,2
		c-2,2.8-1.2,6.8,2,8.8l77.2,50H63.8V70.8h224.8L288.6,206L288.6,206z M317,78.8V126c0,4.4-3.6,8-8,8h-8V70.8h8
		C313.4,70.8,317,74.4,317,78.8z M93,12.8h166c16,0,29.2,13.2,29.2,29.2v16.4H63.8V42C63.8,26,77,12.8,93,12.8z"/>
</g>
<g>
</g>
<g>
</g>
<g>
</g>
<g>
</g>
<g>
</g>
<g>
</g>
<g>
</g>
<g>
</g>
<g>
</g>
<g>
</g>
<g>
</g>
<g>
</g>
<g>
</g>
<g>
</g>
<g>
</g>
</svg>
