<?xml version="1.0" encoding="iso-8859-1"?>
<!-- Generator: Adobe Illustrator 19.0.0, SVG Export Plug-In . SVG Version: 6.00 Build 0)  -->
<svg version="1.1" id="Capa_1" xmlns="http://www.w3.org/2000/svg" xmlns:xlink="http://www.w3.org/1999/xlink" x="0px" y="0px"
	 viewBox="0 0 440.002 440.002" style="enable-background:new 0 0 440.002 440.002;" xml:space="preserve">
<g id="XMLID_1418_">
	<polygon id="XMLID_1419_" style="fill:#CDCDD0;" points="440,45.001 440,145.001 220.002,145.001 220.002,195 440,195 440,225 
		410.002,225 410.002,225.001 380.002,225.001 380.002,225 350.002,225 350.002,225.001 250.002,225.001 250.002,225 220.002,225 
		220.002,255.001 250.002,255.001 350.002,255.001 380.002,255.001 410.002,255.001 440,255.001 440,285.001 410.002,285.001 
		380.002,285.001 350.002,285.001 250.002,285.001 220.002,285.001 220.002,315.002 250.002,315.002 250.002,315.001 
		350.002,315.001 350.002,315.002 380.002,315.002 380.002,315.001 410.002,315.001 410.002,315.002 440,315.002 440,345.002 
		220.002,345.002 220.002,395.001 440.002,395.001 440.002,45.001 	"/>
	<polygon id="XMLID_1420_" style="fill:#DEDDE0;" points="30.002,315.001 130.002,315.001 130.002,315.002 160.002,315.002 
		160.002,315.001 190.002,315.001 190.002,315.002 220.002,315.002 220.002,285.001 190.002,285.001 160.002,285.001 
		130.002,285.001 30.002,285.001 0.003,285.001 0.003,315.002 30.002,315.002 	"/>
	<rect id="XMLID_1421_" x="0.003" y="345.002" style="fill:#DEDDE0;" width="219.999" height="49.999"/>
	<polygon id="XMLID_1422_" style="fill:#DEDDE0;" points="220.002,145.001 220,145.001 0.003,145.001 0.003,195 220.002,195 	"/>
	<polygon id="XMLID_1423_" style="fill:#DEDDE0;" points="130.002,255.001 160.002,255.001 190.002,255.001 220.002,255.001 
		220.002,225 190.002,225 190.002,225.001 160.002,225.001 160.002,225 130.002,225 130.002,225.001 30.002,225.001 30.002,225 
		0.003,225 0.003,255.001 30.002,255.001 	"/>
	<polygon id="XMLID_1424_" style="fill:#78B9EB;" points="30.002,195.001 130.002,195.001 130.002,225 160.002,225 160.002,195.001 
		190.002,195.001 190.002,225 220.002,225 250.002,225 250.002,195.001 350.002,195.001 350.002,225 380.002,225 380.002,195.001 
		410.002,195.001 410.002,225 440,225 440,195 220.002,195 0.003,195 0,195 0,225 0.003,225 30.002,225 	"/>
	<rect id="XMLID_1425_" x="350.002" y="255.001" style="fill:#78B9EB;" width="30" height="30"/>
	<rect id="XMLID_1426_" x="410.002" y="255.001" style="fill:#78B9EB;" width="29.997" height="30"/>
	<polygon id="XMLID_1427_" style="fill:#78B9EB;" points="190.002,285.001 220.002,285.001 250.002,285.001 250.002,255.001 
		220.002,255.001 190.002,255.001 	"/>
	<polygon id="XMLID_1428_" style="fill:#78B9EB;" points="30.002,255.001 0.003,255.001 0,255.001 0,285.001 0.003,285.001 
		30.002,285.001 	"/>
	<rect id="XMLID_1429_" x="130.002" y="255.001" style="fill:#78B9EB;" width="30" height="30"/>
	<polygon id="XMLID_1430_" style="fill:#78B9EB;" points="440,345.002 440,315.002 410.002,315.002 410.002,345.001 
		380.002,345.001 380.002,315.002 350.002,315.002 350.002,345.001 250.002,345.001 250.002,315.002 220.002,315.002 
		190.002,315.002 190.002,345.001 160.002,345.001 160.002,315.002 130.002,315.002 130.002,345.001 30.002,345.001 30.002,315.002 
		0.003,315.002 0,315.002 0,345.002 0.003,345.002 220.002,345.002 	"/>
	<polygon id="XMLID_1431_" style="fill:#FFFFFF;" points="160.002,195.001 160.002,225 160.002,225.001 190.002,225.001 
		190.002,225 190.002,195.001 	"/>
	<polygon id="XMLID_1432_" style="fill:#FFFFFF;" points="30.002,195.001 30.002,225 30.002,225.001 130.002,225.001 130.002,225 
		130.002,195.001 	"/>
	<rect id="XMLID_1433_" x="160.002" y="255.001" style="fill:#FFFFFF;" width="30" height="30"/>
	<rect id="XMLID_1434_" x="30.002" y="255.001" style="fill:#FFFFFF;" width="100" height="30"/>
	<polygon id="XMLID_1435_" style="fill:#FFFFFF;" points="160.002,315.001 160.002,315.002 160.002,345.001 190.002,345.001 
		190.002,315.002 190.002,315.001 	"/>
	<polygon id="XMLID_1436_" style="fill:#FFFFFF;" points="30.002,315.001 30.002,315.002 30.002,345.001 130.002,345.001 
		130.002,315.002 130.002,315.001 	"/>
	<polygon id="XMLID_1437_" style="fill:#FFFFFF;" points="380.002,195.001 380.002,225 380.002,225.001 410.002,225.001 
		410.002,225 410.002,195.001 	"/>
	<polygon id="XMLID_1438_" style="fill:#FFFFFF;" points="250.002,195.001 250.002,225 250.002,225.001 350.002,225.001 
		350.002,225 350.002,195.001 	"/>
	<rect id="XMLID_1439_" x="380.002" y="255.001" style="fill:#FFFFFF;" width="30" height="30"/>
	<rect id="XMLID_1440_" x="250.002" y="255.001" style="fill:#FFFFFF;" width="100" height="30"/>
	<polygon id="XMLID_1441_" style="fill:#FFFFFF;" points="410.002,345.001 410.002,315.002 410.002,315.001 380.002,315.001 
		380.002,315.002 380.002,345.001 	"/>
	<polygon id="XMLID_1442_" style="fill:#FFFFFF;" points="350.002,345.001 350.002,315.002 350.002,315.001 250.002,315.001 
		250.002,315.002 250.002,345.001 	"/>
	<path id="XMLID_1443_" style="fill:#78B9EB;" d="M200.583,84.77h-6.474v8.339h6.747c0.658,0,1.27-0.365,1.839-1.098
		c0.566-0.73,0.85-1.755,0.85-3.07c0-1.354-0.329-2.388-0.987-3.102C201.9,85.126,201.242,84.77,200.583,84.77z"/>
	<path id="XMLID_1444_" style="fill:#78B9EB;" d="M220,84.77h-0.162v-9.325H220V45.001H0.003H0v100h0.002H220V84.77z
		 M65.719,102.901c-0.933,2.396-2.259,4.443-3.978,6.145c-1.72,1.7-3.785,3.016-6.198,3.949c-2.414,0.932-5.103,1.398-8.064,1.398
		H32.502V75.445h14.977c3.218,0,6.052,0.513,8.503,1.536c2.449,1.023,4.498,2.414,6.145,4.169c1.646,1.755,2.888,3.812,3.73,6.171
		c0.841,2.36,1.262,4.875,1.262,7.543C67.118,97.825,66.651,100.505,65.719,102.901z M102.281,114.393H74.523V75.445h27.264v9.325
		H85.22v5.486h14.153v8.667H85.22v6.144h17.061V114.393z M138.979,93.959c-0.622,1.627-1.49,3.071-2.605,4.333
		c-1.116,1.262-2.469,2.269-4.06,3.018c-1.591,0.75-3.338,1.124-5.239,1.124h-6.363v11.959h-10.697V75.445H126.8
		c1.902,0,3.657,0.393,5.267,1.18c1.609,0.787,2.989,1.81,4.143,3.072c1.151,1.261,2.057,2.706,2.715,4.333
		c0.658,1.628,0.987,3.264,0.987,4.911C139.912,90.659,139.6,92.332,138.979,93.959z M166.573,114.393l-2.359-7.624h-10.369
		l-2.303,7.624h-10.916l13.549-38.948h9.764l13.496,38.948H166.573z M204.971,114.393l-6.857-11.959h-4.005v11.959h-10.696V75.445
		h17.883c1.901,0,3.656,0.393,5.267,1.18c1.608,0.787,2.989,1.81,4.142,3.072c1.151,1.261,2.058,2.706,2.716,4.333
		c0.657,1.628,0.986,3.264,0.986,4.911c0,2.267-0.494,4.379-1.48,6.334c-0.987,1.958-2.358,3.558-4.114,4.8l8.229,14.318H204.971z"
		/>
	<path id="XMLID_1451_" style="fill:#78B9EB;" d="M53.924,87.568c-0.75-0.878-1.673-1.563-2.77-2.057
		c-1.098-0.494-2.323-0.741-3.676-0.741H43.2v20.298h4.279c1.39,0,2.633-0.256,3.729-0.768c1.098-0.512,2.021-1.225,2.771-2.141
		c0.75-0.913,1.317-1.992,1.701-3.236c0.384-1.242,0.576-2.597,0.576-4.06c0-1.499-0.201-2.87-0.604-4.113
		C55.25,89.507,54.673,88.447,53.924,87.568z"/>
	<path id="XMLID_1452_" style="fill:#78B9EB;" d="M126.087,84.77h-5.376v8.339h5.65c0.658,0,1.271-0.302,1.838-0.904
		c0.566-0.604,0.851-1.692,0.851-3.264c0-1.61-0.329-2.708-0.988-3.293C127.404,85.063,126.746,84.77,126.087,84.77z"/>
	<polygon id="XMLID_1453_" style="fill:#78B9EB;" points="155.436,99.636 162.512,99.636 159.057,87.568 	"/>
	<path id="XMLID_1454_" style="fill:#5A8BB0;" d="M322.393,92.011c0.567-0.73,0.851-1.755,0.851-3.07
		c0-1.354-0.329-2.388-0.987-3.102c-0.659-0.713-1.316-1.069-1.975-1.069h-6.474v8.339h6.747
		C321.213,93.109,321.826,92.743,322.393,92.011z"/>
	<path id="XMLID_1455_" style="fill:#5A8BB0;" d="M252.971,75.445v9.325H241.78v29.623h-10.695V84.77H220v60.231h0.002H440v-100
		H220.002H220v30.443H252.971z M395.296,102.132c-0.458-0.384-1.088-0.722-1.892-1.015c-0.805-0.293-1.728-0.585-2.77-0.878
		c-1.042-0.293-2.149-0.64-3.319-1.042c-1.72-0.585-3.2-1.215-4.443-1.893c-1.244-0.676-2.268-1.443-3.072-2.304
		c-0.804-0.859-1.398-1.838-1.783-2.935c-0.384-1.098-0.575-2.359-0.575-3.785c0-2.158,0.393-4.061,1.18-5.706
		c0.786-1.646,1.855-3.017,3.209-4.114c1.352-1.097,2.897-1.929,4.635-2.495c1.736-0.566,3.574-0.851,5.514-0.851
		c1.426,0,2.815,0.138,4.169,0.411c1.353,0.274,2.66,0.622,3.922,1.042c1.262,0.421,2.44,0.878,3.539,1.372
		c1.097,0.493,2.085,0.96,2.962,1.399l-4.608,8.832c-1.097-0.66-2.232-1.244-3.401-1.757c-0.986-0.438-2.094-0.85-3.318-1.233
		c-1.225-0.385-2.423-0.577-3.593-0.577c-0.951,0-1.71,0.147-2.276,0.439c-0.568,0.293-0.851,0.787-0.851,1.48
		c0,0.514,0.164,0.934,0.494,1.264c0.329,0.329,0.804,0.63,1.426,0.904c0.622,0.274,1.381,0.54,2.276,0.796
		c0.896,0.256,1.911,0.566,3.045,0.933c1.791,0.548,3.409,1.151,4.855,1.811c1.444,0.658,2.678,1.436,3.703,2.33
		c1.024,0.897,1.81,1.985,2.359,3.264c0.549,1.281,0.822,2.836,0.822,4.665c0,2.34-0.43,4.306-1.289,5.896
		c-0.859,1.591-1.993,2.862-3.401,3.813c-1.409,0.951-2.999,1.638-4.773,2.057c-1.774,0.42-3.558,0.632-5.349,0.632
		c-1.426,0-2.889-0.11-4.39-0.329c-1.5-0.22-2.989-0.53-4.471-0.933c-1.48-0.402-2.907-0.878-4.278-1.427
		c-1.371-0.548-2.643-1.17-3.811-1.865l4.607-9.38c1.279,0.805,2.614,1.519,4.004,2.14c1.171,0.548,2.496,1.042,3.978,1.481
		c1.482,0.438,2.99,0.658,4.526,0.658c1.17,0,1.982-0.156,2.44-0.467c0.457-0.311,0.686-0.722,0.686-1.233
		C395.982,102.983,395.753,102.517,395.296,102.132z M342.881,75.445h27.265v9.325h-16.567v5.486h14.152v8.667h-14.152v6.144h17.059
		v9.325h-27.757V75.445z M303.112,75.445h17.883c1.901,0,3.656,0.393,5.267,1.18c1.607,0.787,2.989,1.81,4.142,3.072
		c1.151,1.261,2.058,2.706,2.716,4.333c0.657,1.628,0.986,3.264,0.986,4.911c0,2.267-0.493,4.379-1.48,6.334
		c-0.987,1.958-2.359,3.558-4.114,4.8l8.229,14.318h-12.069l-6.857-11.959h-4.005v11.959h-10.696V75.445z M259.06,75.445h10.697
		v20.023c0,1.279,0.128,2.515,0.384,3.702c0.255,1.188,0.658,2.232,1.207,3.127c0.549,0.898,1.253,1.61,2.112,2.14
		c0.859,0.531,1.911,0.796,3.154,0.796c1.243,0,2.304-0.274,3.182-0.823c0.877-0.548,1.591-1.27,2.14-2.167
		c0.548-0.896,0.95-1.93,1.207-3.1c0.255-1.17,0.383-2.396,0.383-3.675V75.445h10.697v20.023c0,2.706-0.348,5.237-1.042,7.598
		c-0.694,2.359-1.773,4.397-3.236,6.116c-1.463,1.72-3.3,3.072-5.514,4.059c-2.213,0.987-4.818,1.481-7.816,1.481
		c-3.108,0-5.77-0.521-7.982-1.563c-2.213-1.042-4.031-2.44-5.458-4.196c-1.426-1.755-2.468-3.794-3.126-6.115
		c-0.659-2.323-0.988-4.782-0.988-7.379V75.445z"/>
	<path id="XMLID_1461_" style="fill:#FFFFFF;" d="M62.126,81.15c-1.646-1.755-3.695-3.146-6.145-4.169
		c-2.451-1.023-5.285-1.536-8.503-1.536H32.502v38.948h14.977c2.962,0,5.65-0.467,8.064-1.398c2.413-0.934,4.479-2.249,6.198-3.949
		c1.719-1.701,3.045-3.748,3.978-6.145c0.932-2.396,1.398-5.075,1.398-8.037c0-2.668-0.421-5.183-1.262-7.543
		C65.014,84.961,63.772,82.905,62.126,81.15z M55.68,98.923c-0.384,1.244-0.951,2.323-1.701,3.236
		c-0.75,0.916-1.673,1.629-2.771,2.141c-1.097,0.512-2.34,0.768-3.729,0.768H43.2V84.77h4.279c1.353,0,2.578,0.247,3.676,0.741
		c1.097,0.493,2.02,1.179,2.77,2.057c0.749,0.879,1.325,1.94,1.729,3.183c0.402,1.243,0.604,2.614,0.604,4.113
		C56.256,96.326,56.064,97.681,55.68,98.923z"/>
	<polygon id="XMLID_1464_" style="fill:#FFFFFF;" points="85.22,98.923 99.373,98.923 99.373,90.256 85.22,90.256 85.22,84.77 
		101.787,84.77 101.787,75.445 74.523,75.445 74.523,114.393 102.281,114.393 102.281,105.068 85.22,105.068 	"/>
	<path id="XMLID_1465_" style="fill:#FFFFFF;" d="M136.209,79.697c-1.153-1.263-2.533-2.285-4.143-3.072
		c-1.609-0.786-3.364-1.18-5.267-1.18h-16.786v38.948h10.697v-11.959h6.363c1.901,0,3.648-0.374,5.239-1.124
		c1.591-0.749,2.943-1.756,4.06-3.018c1.115-1.262,1.983-2.706,2.605-4.333c0.621-1.627,0.933-3.3,0.933-5.019
		c0-1.647-0.329-3.283-0.987-4.911C138.266,82.403,137.361,80.957,136.209,79.697z M128.2,92.204
		c-0.567,0.603-1.18,0.904-1.838,0.904h-5.65V84.77h5.376c0.658,0,1.316,0.293,1.975,0.878c0.659,0.585,0.988,1.683,0.988,3.293
		C129.05,90.512,128.766,91.6,128.2,92.204z"/>
	<path id="XMLID_1468_" style="fill:#FFFFFF;" d="M154.174,75.445l-13.549,38.948h10.916l2.303-7.624h10.369l2.359,7.624h10.861
		l-13.496-38.948H154.174z M155.436,99.636l3.621-12.068l3.455,12.068H155.436z"/>
	<path id="XMLID_1471_" style="fill:#FFFFFF;" d="M212.926,95.275c0.986-1.955,1.48-4.067,1.48-6.334
		c0-1.647-0.329-3.283-0.986-4.911c-0.658-1.627-1.564-3.072-2.716-4.333c-1.152-1.263-2.533-2.285-4.142-3.072
		c-1.61-0.786-3.365-1.18-5.267-1.18h-17.883v38.948h10.696v-11.959h4.005l6.857,11.959h12.069l-8.229-14.318
		C210.568,98.832,211.939,97.233,212.926,95.275z M202.696,92.011c-0.568,0.732-1.181,1.098-1.839,1.098h-6.747V84.77h6.474
		c0.658,0,1.316,0.356,1.975,1.069c0.658,0.714,0.987,1.747,0.987,3.102C203.545,90.256,203.262,91.281,202.696,92.011z"/>
	<polygon id="XMLID_1474_" style="fill:#FFFFFF;" points="231.084,84.77 231.084,114.393 241.78,114.393 241.78,84.77 
		252.971,84.77 252.971,75.445 220,75.445 219.838,75.445 219.838,84.77 220,84.77 	"/>
	<path id="XMLID_1475_" style="fill:#FFFFFF;" d="M263.174,108.962c1.427,1.756,3.245,3.154,5.458,4.196
		c2.212,1.043,4.874,1.563,7.982,1.563c2.998,0,5.604-0.494,7.816-1.481c2.214-0.986,4.051-2.339,5.514-4.059
		c1.463-1.719,2.542-3.757,3.236-6.116c0.694-2.36,1.042-4.892,1.042-7.598V75.445h-10.697v20.023c0,1.279-0.128,2.505-0.383,3.675
		c-0.257,1.17-0.659,2.204-1.207,3.1c-0.549,0.897-1.263,1.619-2.14,2.167c-0.878,0.549-1.938,0.823-3.182,0.823
		c-1.243,0-2.295-0.265-3.154-0.796c-0.859-0.529-1.563-1.242-2.112-2.14c-0.549-0.895-0.952-1.938-1.207-3.127
		c-0.256-1.188-0.384-2.423-0.384-3.702V75.445H259.06v20.023c0,2.597,0.329,5.056,0.988,7.379
		C260.707,105.168,261.749,107.207,263.174,108.962z"/>
	<path id="XMLID_1476_" style="fill:#FFFFFF;" d="M313.808,102.434h4.005l6.857,11.959h12.069l-8.229-14.318
		c1.755-1.242,3.127-2.842,4.114-4.8c0.987-1.955,1.48-4.067,1.48-6.334c0-1.647-0.329-3.283-0.986-4.911
		c-0.658-1.627-1.564-3.072-2.716-4.333c-1.152-1.263-2.534-2.285-4.142-3.072c-1.61-0.786-3.365-1.18-5.267-1.18h-17.883v38.948
		h10.696V102.434z M313.808,84.77h6.474c0.658,0,1.315,0.356,1.975,1.069c0.658,0.714,0.987,1.747,0.987,3.102
		c0,1.315-0.283,2.34-0.851,3.07c-0.567,0.732-1.18,1.098-1.838,1.098h-6.747V84.77z"/>
	<polygon id="XMLID_1479_" style="fill:#FFFFFF;" points="370.638,105.068 353.579,105.068 353.579,98.923 367.731,98.923 
		367.731,90.256 353.579,90.256 353.579,84.77 370.146,84.77 370.146,75.445 342.881,75.445 342.881,114.393 370.638,114.393 	"/>
	<path id="XMLID_1480_" style="fill:#FFFFFF;" d="M395.296,104.766c-0.458,0.311-1.271,0.467-2.44,0.467
		c-1.536,0-3.045-0.22-4.526-0.658c-1.481-0.439-2.807-0.934-3.978-1.481c-1.39-0.621-2.725-1.335-4.004-2.14l-4.607,9.38
		c1.169,0.695,2.44,1.317,3.811,1.865c1.371,0.549,2.798,1.024,4.278,1.427c1.482,0.402,2.971,0.713,4.471,0.933
		c1.501,0.219,2.964,0.329,4.39,0.329c1.791,0,3.574-0.212,5.349-0.632c1.773-0.419,3.363-1.105,4.773-2.057
		c1.408-0.95,2.542-2.222,3.401-3.813c0.859-1.59,1.289-3.556,1.289-5.896c0-1.829-0.273-3.384-0.822-4.665
		c-0.549-1.278-1.335-2.366-2.359-3.264c-1.025-0.895-2.259-1.672-3.703-2.33c-1.445-0.659-3.063-1.263-4.855-1.811
		c-1.134-0.366-2.148-0.677-3.045-0.933c-0.896-0.256-1.654-0.521-2.276-0.796c-0.622-0.274-1.097-0.575-1.426-0.904
		c-0.33-0.33-0.494-0.75-0.494-1.264c0-0.693,0.282-1.188,0.851-1.48c0.566-0.292,1.325-0.439,2.276-0.439
		c1.17,0,2.368,0.192,3.593,0.577c1.225,0.384,2.332,0.795,3.318,1.233c1.17,0.513,2.305,1.097,3.401,1.757l4.608-8.832
		c-0.877-0.44-1.865-0.906-2.962-1.399c-1.099-0.494-2.277-0.951-3.539-1.372c-1.262-0.42-2.569-0.768-3.922-1.042
		c-1.354-0.273-2.743-0.411-4.169-0.411c-1.939,0-3.777,0.284-5.514,0.851c-1.737,0.566-3.283,1.398-4.635,2.495
		c-1.353,1.098-2.423,2.469-3.209,4.114c-0.787,1.646-1.18,3.548-1.18,5.706c0,1.426,0.191,2.688,0.575,3.785
		c0.385,1.097,0.979,2.075,1.783,2.935c0.804,0.86,1.828,1.628,3.072,2.304c1.243,0.678,2.724,1.308,4.443,1.893
		c1.17,0.402,2.277,0.749,3.319,1.042c1.042,0.293,1.965,0.585,2.77,0.878c0.805,0.293,1.434,0.631,1.892,1.015
		c0.457,0.385,0.686,0.85,0.686,1.4C395.982,104.044,395.753,104.455,395.296,104.766z"/>
</g>
<g>
</g>
<g>
</g>
<g>
</g>
<g>
</g>
<g>
</g>
<g>
</g>
<g>
</g>
<g>
</g>
<g>
</g>
<g>
</g>
<g>
</g>
<g>
</g>
<g>
</g>
<g>
</g>
<g>
</g>
</svg>
