<svg height="512pt" viewBox="0 -42 512.001 512" width="512pt" xmlns="http://www.w3.org/2000/svg"><path d="m487.429688 0h-462.859376c-13.570312 0-24.570312 11-24.570312 24.574219v310.75c0 13.570312 11 24.570312 24.570312 24.570312h145.832032c5.484375 0 10.75 2.179688 14.628906 6.0625l56.339844 56.339844c8.078125 8.078125 21.179687 8.078125 29.257812 0l56.339844-56.339844c3.882812-3.882812 9.144531-6.0625 14.632812-6.0625h145.828126c13.570312 0 24.570312-11 24.570312-24.570312v-310.75c0-13.574219-11-24.574219-24.570312-24.574219zm0 0" fill="#ff4a4a"/><path d="m211.617188 332.917969c-8.972657-8.976563-20.90625-13.921875-33.601563-13.921875h-131.101563c-2.722656 0-4.929687-2.207032-4.929687-4.929688v-269.332031c0-2.722656 2.207031-4.929687 4.929687-4.929687h418.167969c2.722657 0 4.929688 2.207031 4.929688 4.929687v269.332031c0 2.722656-2.207031 4.929688-4.929688 4.929688h-130.0625c-12.695312 0-24.628906 4.945312-33.601562 13.921875l-41.414063 41.414062c-1.925781 1.925781-5.042968 1.925781-6.972656 0zm0 0" fill="#f8a28b"/><path d="m292.101562 186.40625c-1.609374-1.59375-1.609374-4.195312 0-5.789062l34.046876-33.699219c9.117187-9.117188 9.117187-23.898438 0-33.015625-9.117188-9.117188-23.898438-9.117188-33.015626 0l-34.269531 33.925781c-1.585937 1.574219-4.140625 1.574219-5.730469 0l-34.269531-33.925781c-9.117187-9.117188-23.898437-9.117188-33.015625 0-9.113281 9.117187-9.113281 23.898437 0 33.015625l34.050782 33.699219c1.609374 1.59375 1.609374 4.195312 0 5.789062l-33.542969 33.207031c-9.398438 9.304688-9.4375 24.566407-.085938 33.917969 8.847657 8.851562 23.1875 8.886719 32.082031.082031l34.78125-34.425781c1.589844-1.570312 4.144532-1.570312 5.730469 0l34.78125 34.425781c8.894531 8.804688 23.234375 8.769531 32.082031-.082031 9.351563-9.351562 9.3125-24.613281-.082031-33.917969zm0 0" fill="#fff"/></svg>