<svg height="512pt" viewBox="0 -42 512.001 512" width="512pt" xmlns="http://www.w3.org/2000/svg"><path d="m487.429688 0h-462.859376c-13.570312 0-24.570312 11-24.570312 24.574219v310.75c0 13.570312 11 24.570312 24.570312 24.570312h145.832032c5.484375 0 10.75 2.179688 14.628906 6.0625l56.339844 56.339844c8.078125 8.078125 21.179687 8.078125 29.257812 0l56.339844-56.339844c3.882812-3.882812 9.144531-6.0625 14.632812-6.0625h145.828126c13.570312 0 24.570312-11 24.570312-24.570312v-310.75c0-13.574219-11-24.574219-24.570312-24.574219zm0 0" fill="#2fa39b"/><path d="m211.097656 332.917969c-8.972656-8.976563-20.90625-13.921875-33.601562-13.921875h-131.097656c-2.722657 0-4.929688-2.207032-4.929688-4.929688v-269.332031c0-2.722656 2.207031-4.929687 4.929688-4.929687h418.164062c2.722656 0 4.929688 2.207031 4.929688 4.929687v269.332031c0 2.722656-2.207032 4.929688-4.929688 4.929688h-130.058594c-12.695312 0-24.628906 4.945312-33.605468 13.921875l-41.410157 41.414062c-1.925781 1.925781-5.046875 1.925781-6.972656 0zm0 0" fill="#5ed4cd"/><path d="m220.082031 261.914062c-6.191406 0-12.128906-2.460937-16.507812-6.835937l-49.546875-49.546875c-9.117188-9.117188-9.117188-23.898438 0-33.015625 9.117187-9.117187 23.898437-9.117187 33.015625 0l33.039062 33.039063 91.648438-91.652344c9.117187-9.117188 23.898437-9.117188 33.015625 0 9.117187 9.117187 9.117187 23.898437 0 33.015625l-108.15625 108.15625c-4.378906 4.378906-10.316406 6.839843-16.507813 6.839843zm0 0" fill="#fff"/></svg>