<?xml version="1.0" encoding="iso-8859-1"?>
<!-- Generator: Adobe Illustrator 19.0.0, SVG Export Plug-In . SVG Version: 6.00 Build 0)  -->
<svg version="1.1" id="Capa_1" xmlns="http://www.w3.org/2000/svg" xmlns:xlink="http://www.w3.org/1999/xlink" x="0px" y="0px"
	 viewBox="0 0 435.6 435.6" style="enable-background:new 0 0 435.6 435.6;" xml:space="preserve">
<path style="fill:#52C2EA;" d="M332,252.6C296.4,217,219.6,221,219.6,221h-138H35.2v126.4h4.4c0,0,16.8,0,42.4,0
	c64,0,184.4,0,240.8,0C437.2,347.4,367.6,288.2,332,252.6z"/>
<path style="fill:#79D0E8;" d="M60.8,221H35.2v126.4h3.2c0,0,8.4,0,22,0V221H60.8z"/>
<polygon style="fill:#A7D9E8;" points="219.6,289.4 39.2,289.4 39.2,245.4 181.6,245.4 "/>
<path style="fill:#424953;" d="M32,353.8h290.4c40,0,61.6-6.8,68-22c8.8-22-20-50.4-45.6-75.6c-2.8-2.8-5.6-5.6-8.4-8
	c-37.2-37.2-114-33.6-116.8-33.6H35.2c-3.6,0-6.4,2.8-6.4,6.4c0,3.6,2.8,6.4,6.4,6.4h181.2L248,269c0.4,0.8,14.8,20.4,36.4,21.6
	c6.4,0.4,17.2,0.4,28.4,0.4c21.6,0,45.2-0.4,46.8-0.4h0.4c12.4,14,22,28,18.4,36.8c-2,5.2-12.4,14-56,14H32c-3.6,0-6.4,2.8-6.4,6.4
	C25.6,351,28.4,353.8,32,353.8z M285.2,277.8c-15.6-0.8-26.8-16-26.8-16.4l-26-34c22.4,0.8,70,4.8,95.2,30c2.8,2.8,5.6,5.2,8.4,8.4
	c4,4,8.4,8.4,12.8,12.8C331.6,278.2,298.8,278.6,285.2,277.8z"/>
<path style="fill:#A7D9E8;" d="M335.6,265c-2.8-2.8-5.6-5.6-8.4-8.4c-24.8-24.8-72.4-29.2-95.2-30l26,34
	c0.4,0.4,11.2,15.6,26.8,16.4c13.6,0.8,46,0.4,63.2,0C344,273.4,339.6,269,335.6,265z"/>
<path style="fill:#C3DFE5;" d="M298.4,277.8c-15.6-0.8-26.8-16-26.8-16.4L246,227.8c-5.2-0.4-9.6-0.8-13.6-0.8l26,34
	c0.4,0.4,11.2,15.6,26.8,16.4c7.6,0.4,20.8,0.4,34,0.4C310.8,278.2,303.2,278.2,298.4,277.8z"/>
<g>
	<path style="fill:#424953;" d="M6.4,377.8h422.8c3.6,0,6.4-2.8,6.4-6.4s-2.8-6.4-6.4-6.4H6.4c-3.6,0-6.4,2.8-6.4,6.4
		C0.4,375,3.2,377.8,6.4,377.8z"/>
	<path style="fill:#424953;" d="M39.2,295.8h180.4l0,0c3.6,0,6.4-2.8,6.4-6.4c0-2-0.8-3.6-2.4-4.8l-37.2-43.2c-1.2-1.2-2.8-2-4.8-2
		H39.2c-3.6,0-6.4,2.8-6.4,6.4v44C32.8,293,35.6,295.8,39.2,295.8z M126.4,251.8l26.8,31.2h-36l-26.8-31.2H126.4z M205.6,283h-36
		l-26.8-31.2h35.6L205.6,283z M45.6,251.8h28l26.8,31.2H45.6V251.8z"/>
	<path style="fill:#424953;" d="M19.6,149.8h56.8c3.6,0,6.4-2.8,6.4-6.4c0-18.4,14.8-33.2,33.2-33.2s33.2,14.8,33.2,33.2
		c0,3.6,2.8,6.4,6.4,6.4h63.6c3.6,0,6.4-2.8,6.4-6.4c0-3.6-2.8-6.4-6.4-6.4H162c-1.6-12.4-8.4-22.8-17.6-30c0.4-0.8,0.8-2,0.8-3.2
		c0-18.4,14.8-33.2,33.2-33.2s33.2,14.8,33.2,33.2c0,3.6,2.8,6.4,6.4,6.4h63.6c3.6,0,6.4-2.8,6.4-6.4c0-3.6-2.8-6.4-6.4-6.4H224
		c-3.2-22.4-22.4-39.6-45.6-39.6c-24.4,0-44,18.8-46,42.8c-5.2-2-10.4-3.2-16.4-3.2c-23.2,0-42.4,17.2-45.6,39.6H19.6
		c-3.6,0-6.4,2.8-6.4,6.4C13.2,146.6,16.4,149.8,19.6,149.8z"/>
	<path style="fill:#424953;" d="M19.6,181.4h150.8c3.6,0,6.4-2.8,6.4-6.4c0-3.6-2.8-6.4-6.4-6.4H19.6c-3.6,0-6.4,2.8-6.4,6.4
		C13.2,178.6,16.4,181.4,19.6,181.4z"/>
</g>
<g>
</g>
<g>
</g>
<g>
</g>
<g>
</g>
<g>
</g>
<g>
</g>
<g>
</g>
<g>
</g>
<g>
</g>
<g>
</g>
<g>
</g>
<g>
</g>
<g>
</g>
<g>
</g>
<g>
</g>
</svg>
