<?xml version="1.0" encoding="iso-8859-1"?>
<!-- Generator: Adobe Illustrator 19.0.0, SVG Export Plug-In . SVG Version: 6.00 Build 0)  -->
<svg version="1.1" id="Capa_1" xmlns="http://www.w3.org/2000/svg" xmlns:xlink="http://www.w3.org/1999/xlink" x="0px" y="0px"
	 viewBox="0 0 404.311 404.311" style="enable-background:new 0 0 404.311 404.311;" xml:space="preserve">
<path style="fill:#6598D1;" d="M307.756,286.711c0,17.2-14.4,31.6-31.6,31.6h-148c-17.2,0-31.6-14.4-31.6-31.6v-208.8
	c0-17.2,14.4-31.6,31.6-31.6h147.6c17.2,0,31.6,14.4,31.6,31.6v208.8H307.756z"/>
<path style="fill:#7EA8CE;" d="M122.156,287.111v-208.4c0-17.2,14.4-31.6,31.6-31.6h128.8c-2-0.8-4.4-0.8-6.4-0.8h-148
	c-17.2,0-31.6,14.4-31.6,31.6v208.8c0,17.2,14.4,31.6,31.6,31.6h18.8C132.956,315.111,122.156,302.311,122.156,287.111z"/>
<rect x="96.555" y="97.911" style="fill:#A7D9E8;" width="210" height="130.8"/>
<g>
	<polygon style="fill:#C3DFE5;" points="180.555,97.911 113.756,228.711 123.756,228.711 190.156,97.911 	"/>
	<polygon style="fill:#C3DFE5;" points="204.156,97.911 137.355,228.711 147.355,228.711 213.756,97.911 	"/>
	<polygon style="fill:#C3DFE5;" points="277.356,97.911 210.955,228.711 220.555,228.711 287.356,97.911 	"/>
	<rect x="96.555" y="97.911" style="fill:#C3DFE5;" width="25.6" height="130.8"/>
</g>
<g>
	<circle style="fill:#E6E9EE;" cx="134.555" cy="258.711" r="12.8"/>
	<circle style="fill:#E6E9EE;" cx="270.956" cy="257.911" r="12.8"/>
</g>
<g>
	<path style="fill:#424953;" d="M180.555,76.311h41.6c3.6,0,6.4-2.8,6.4-6.4s-2.8-6.4-6.4-6.4h-41.6c-3.6,0-6.4,2.8-6.4,6.4
		S176.956,76.311,180.555,76.311z"/>
	<path style="fill:#424953;" d="M332.956,158.711c3.6,0,6.4-2.8,6.4-6.4v-42c0-10.4-8.4-18.8-18.8-18.8h-6.4v-13.6
		c0-20.8-17.2-38-38-38h-62l40-28.4c2.8-2,3.6-6,1.6-8.8c-2-2.8-6-3.6-8.8-1.6l-50.4,36l-50.4-36c-2.8-2-6.8-1.2-8.8,1.6
		s-1.2,6.8,1.6,8.8l40,28.4h-50.8c-20.8,0-38,17.2-38,38v13.6h-6.4c-10.4,0-18.8,8.4-18.8,18.8v42c0,3.6,2.8,6.4,6.4,6.4
		s6.4-2.8,6.4-6.4v-42c0-3.6,2.8-6.4,6.4-6.4h6.4v182.4c0,18.8,13.6,34,31.2,37.2l-37.6,71.6c-1.6,3.2-0.4,6.8,2.8,8.4
		c0.8,0.4,2,0.8,2.8,0.8c2.4,0,4.4-1.2,5.6-3.6l13.6-26.4h184.4l13.6,26.4c1.2,2,3.2,3.6,5.6,3.6c0.8,0,2-0.4,2.8-0.8
		c3.2-1.6,4.4-5.6,2.8-8.4l-37.2-71.6c18.4-2.4,32.8-18.4,32.8-37.6v-181.6h6.4c3.6,0,6.4,2.8,6.4,6.4v42
		C326.556,155.911,329.356,158.711,332.956,158.711z M301.356,222.311c-0.4,0-0.8,0-0.8,0h-197.6v-118h198.4V222.311z
		 M128.156,52.311h147.6c14,0,25.2,11.2,25.2,25.2v13.6h-198v-13.6C102.956,63.911,114.555,52.311,128.156,52.311z M115.756,362.311
		l19.6-38h131.6l19.6,38H115.756z M276.156,311.911h-148c-14,0-25.2-11.2-25.2-25.2v-52h197.2c0.4,0,0.8,0,0.8,0v52
		C301.356,300.311,289.756,311.911,276.156,311.911z"/>
	<path style="fill:#424953;" d="M134.555,237.911c-11.2,0-20,8.8-20,20c0,11.2,8.8,20,20,20s20-8.8,20-20
		C154.555,247.111,145.756,237.911,134.555,237.911z M134.555,265.511c-4,0-7.2-3.2-7.2-7.2c0-4,3.2-7.2,7.2-7.2s7.2,3.2,7.2,7.2
		C142.156,262.311,138.555,265.511,134.555,265.511z"/>
	<path style="fill:#424953;" d="M270.956,237.911c-11.2,0-20,8.8-20,20c0,11.2,8.8,20,20,20s20-8.8,20-20
		C290.956,247.111,282.156,237.911,270.956,237.911z M270.956,265.511c-4,0-7.2-3.2-7.2-7.2c0-4,3.2-7.2,7.2-7.2s7.2,3.2,7.2,7.2
		C278.556,262.311,274.956,265.511,270.956,265.511z"/>
	<path style="fill:#424953;" d="M218.156,251.911h-39.2c-3.6,0-6.4,2.8-6.4,6.4c0,3.6,2.8,6.4,6.4,6.4h39.2c3.6,0,6.4-2.8,6.4-6.4
		C224.555,254.711,221.356,251.911,218.156,251.911z"/>
</g>
<g>
</g>
<g>
</g>
<g>
</g>
<g>
</g>
<g>
</g>
<g>
</g>
<g>
</g>
<g>
</g>
<g>
</g>
<g>
</g>
<g>
</g>
<g>
</g>
<g>
</g>
<g>
</g>
<g>
</g>
</svg>
