<?xml version="1.0" encoding="iso-8859-1"?>
<!-- Generator: Adobe Illustrator 16.0.0, SVG Export Plug-In . SVG Version: 6.00 Build 0)  -->
<!DOCTYPE svg PUBLIC "-//W3C//DTD SVG 1.1//EN" "http://www.w3.org/Graphics/SVG/1.1/DTD/svg11.dtd">
<svg version="1.1" id="Capa_1" xmlns="http://www.w3.org/2000/svg" xmlns:xlink="http://www.w3.org/1999/xlink" x="0px" y="0px"
	 width="260.66px" height="260.66px" viewBox="0 0 260.66 260.66" style="enable-background:new 0 0 260.66 260.66;"
	 xml:space="preserve">
<g>
	<g>
		<path d="M73.306,153.002h-40.5v-16.279h39.055v-12.67H32.807v-16.594h40.5V94.269H19.308c0,24.012,0,48.121,0,72.134h53.995
			v-13.401H73.306z"/>
		<polygon points="114.762,139.296 133.205,166.396 148.454,166.396 148.454,165.985 123.312,129.921 147.728,94.889 
			147.728,94.266 132.795,94.266 114.762,121.164 96.726,94.266 81.783,94.266 81.783,94.889 106.103,129.921 81.064,165.985 
			81.064,166.396 96.315,166.396 		"/>
		<rect x="156.632" y="94.266" width="13.5" height="72.131"/>
		<path d="M204.872,166.396h13.603v-59.765h22.87V94.266c-20.916,0-38.533,0-59.347,0v12.366h22.87v59.765H204.872z"/>
		<path d="M257.152,69.248H3.504C1.566,69.248,0,70.819,0,72.752v115.156c0,1.934,1.566,3.504,3.504,3.504h253.65
			c1.938,0,3.505-1.57,3.505-3.504V72.752C260.656,70.819,259.092,69.248,257.152,69.248z M253.647,184.403H7.009V76.256h246.642
			v108.147H253.647z"/>
	</g>
</g>
<g>
</g>
<g>
</g>
<g>
</g>
<g>
</g>
<g>
</g>
<g>
</g>
<g>
</g>
<g>
</g>
<g>
</g>
<g>
</g>
<g>
</g>
<g>
</g>
<g>
</g>
<g>
</g>
<g>
</g>
</svg>
