<svg height="512pt" viewBox="0 -40 512.00001 512" width="512pt" xmlns="http://www.w3.org/2000/svg"><path d="m441.828125 421.835938h-371.855469c-33.125 0-59.976562-26.855469-59.976562-59.976563v-291.886719c0-33.125 26.851562-59.976562 59.976562-59.976562h371.855469c33.121094 0 59.976563 26.851562 59.976563 59.976562v291.886719c0 33.125-26.855469 59.976563-59.976563 59.976563zm0 0" fill="#f9f9f9"/><path d="m69.972656 381.851562c-11.023437 0-19.992187-8.96875-19.992187-19.992187v-291.886719c0-11.023437 8.96875-19.992187 19.992187-19.992187h371.855469c11.023437 0 19.992187 8.96875 19.992187 19.992187v291.886719c0 11.023437-8.96875 19.992187-19.992187 19.992187zm0 0" fill="#69bc94"/><path d="m321.160156 226.808594-78.890625-1.996094 23.671875 19.351562-75.300781 65.835938 15.324219 17.527344 15.730468 17.996094 75.304688-65.839844 15.605469 25.578125zm0 0" fill="#f9f9f9"/><path d="m39.984375 361.859375c0 16.535156 13.453125 29.988281 29.988281 29.988281h371.855469c16.535156 0 29.988281-13.453125 29.988281-29.988281v-291.886719c0-16.535156-13.453125-29.988281-29.988281-29.988281h-371.855469c-16.535156 0-29.988281 13.453125-29.988281 29.988281v199.816406c0 5.519532 4.476563 9.996094 9.996094 9.996094s9.996093-4.476562 9.996093-9.996094v-199.816406c0-5.511718 4.484376-9.996094 9.996094-9.996094h371.855469c5.511719 0 9.996094 4.484376 9.996094 9.996094v291.886719c0 5.511719-4.484375 9.996094-9.996094 9.996094h-371.855469c-5.511718 0-9.996094-4.484375-9.996094-9.996094v-2.164063c0-5.519531-4.476562-9.996093-9.996093-9.996093s-9.996094 4.476562-9.996094 9.996093zm0 0"/><path d="m501.804688 150.035156c-5.523438 0-9.996094 4.476563-9.996094 9.996094v201.828125c0 27.558594-22.421875 49.980469-49.980469 49.980469h-371.855469c-27.558594 0-49.980468-22.421875-49.980468-49.980469v-291.886719c0-27.558594 22.421874-49.980468 49.980468-49.980468h371.855469c27.558594 0 49.980469 22.421874 49.980469 49.980468v.121094c0 5.523438 4.472656 9.996094 9.996094 9.996094 5.519531 0 9.996093-4.472656 9.996093-9.996094v-.121094c0-38.582031-31.390625-69.972656-69.972656-69.972656h-371.855469c-38.582031 0-69.972656 31.390625-69.972656 69.972656v291.886719c0 38.582031 31.390625 69.972656 69.972656 69.972656h371.855469c38.582031 0 69.972656-31.390625 69.972656-69.972656v-201.828125c0-5.519531-4.476562-9.996094-9.996093-9.996094zm0 0"/><path d="m168.71875 98.734375c5.519531 0 9.996094-4.476563 9.996094-9.996094s-4.476563-9.996093-9.996094-9.996093h-55.328125c-5.523437 0-9.996094 4.476562-9.996094 9.996093v86.191407c0 5.519531 4.472657 9.996093 9.996094 9.996093h55.328125c5.519531 0 9.996094-4.476562 9.996094-9.996093 0-5.519532-4.476563-9.996094-9.996094-9.996094h-45.332031v-31.3125h26.648437c5.519532 0 9.996094-4.476563 9.996094-9.996094s-4.476562-9.996094-9.996094-9.996094h-26.648437v-14.894531zm0 0"/><path d="m197.066406 183.257812c1.703125 1.128907 3.625 1.671876 5.523438 1.671876 3.234375 0 6.410156-1.570313 8.335937-4.464844l19.335938-29.109375 19.339843 29.109375c1.921876 2.894531 5.097657 4.464844 8.335938 4.464844 1.898438 0 3.820312-.542969 5.519531-1.671876 4.597657-3.054687 5.851563-9.257812 2.796875-13.855468l-23.992187-36.113282 23.992187-36.109374c3.054688-4.597657 1.800782-10.800782-2.796875-13.855469-4.597656-3.054688-10.800781-1.804688-13.855469 2.792969l-19.339843 29.109374-19.335938-29.109374c-3.054687-4.597657-9.257812-5.851563-13.859375-2.792969-4.597656 3.054687-5.847656 9.257812-2.792968 13.855469l23.988281 36.109374-23.988281 36.113282c-3.054688 4.597656-1.804688 10.800781 2.792968 13.855468zm0 0"/><path d="m312.082031 174.929688v-86.195313c0-5.519531-4.476562-9.996094-9.996093-9.996094-5.523438 0-9.996094 4.476563-9.996094 9.996094v86.195313c0 5.519531 4.472656 9.996093 9.996094 9.996093 5.519531 0 9.996093-4.472656 9.996093-9.996093zm0 0"/><path d="m371.152344 184.925781c5.523437 0 9.996094-4.476562 9.996094-9.996093v-76.199219h17.667968c5.523438 0 9.996094-4.472657 9.996094-9.996094 0-5.519531-4.472656-9.996094-9.996094-9.996094h-55.328125c-5.519531 0-9.996093 4.476563-9.996093 9.996094 0 5.523437 4.476562 9.996094 9.996093 9.996094h17.667969v76.199219c0 5.523437 4.476562 9.996093 9.996094 9.996093zm0 0"/><path d="m183.113281 316.582031 31.058594 35.519531c1.976563 2.261719 4.746094 3.417969 7.527344 3.417969 2.335937 0 4.683593-.8125 6.578125-2.472656l66.367187-58.027344 9.429688 15.445313c2.226562 3.652344 6.535156 5.480468 10.710937 4.550781 4.175782-.933594 7.292969-4.417969 7.757813-8.671875l8.554687-78.453125c.300782-2.777344-.574218-5.558594-2.414062-7.660156-1.839844-2.105469-4.476563-3.34375-7.273438-3.414063l-78.890625-1.996094c-4.269531-.109374-8.136719 2.511719-9.621093 6.515626-1.488282 4.003906-.265626 8.511718 3.042968 11.214843l14.519532 11.871094-66.398438 58.054687c-4.15625 3.632813-4.582031 9.949219-.949219 14.105469zm89.40625-64.894531c2.214844-1.933594 3.464844-4.75 3.417969-7.6875-.050781-2.941406-1.390625-5.714844-3.667969-7.574219l-1.078125-.882812 38.851563.984375-4.191407 38.472656-.320312-.523438c-1.535156-2.515624-4.105469-4.226562-7.015625-4.671874-2.917969-.449219-5.878906.414062-8.097656 2.355468l-67.773438 59.257813-17.898437-20.472657zm0 0"/><path d="m511.8125 112.078125c-.847656-4.109375-4.21875-7.324219-8.378906-7.929687-4.179688-.605469-8.382813 1.570312-10.3125 5.320312-1.90625 3.710938-1.265625 8.351562 1.589844 11.398438 2.816406 3.011718 7.320312 3.960937 11.121093 2.394531 4.351563-1.792969 6.90625-6.570313 5.980469-11.183594zm0 0"/><path d="m41.664062 322.214844c2.3125 3.429687 6.621094 5.144531 10.652344 4.164062 4.046875-.980468 7.09375-4.4375 7.589844-8.570312.507812-4.203125-1.847656-8.390625-5.671875-10.183594-3.667969-1.722656-8.136719-1.023438-11.09375 1.753906-3.515625 3.304688-4.15625 8.8125-1.476563 12.835938zm0 0"/></svg>