<?xml version="1.0" encoding="iso-8859-1"?>
<!-- Generator: Adobe Illustrator 16.0.0, SVG Export Plug-In . SVG Version: 6.00 Build 0)  -->
<!DOCTYPE svg PUBLIC "-//W3C//DTD SVG 1.1//EN" "http://www.w3.org/Graphics/SVG/1.1/DTD/svg11.dtd">
<svg version="1.1" id="Capa_1" xmlns="http://www.w3.org/2000/svg" xmlns:xlink="http://www.w3.org/1999/xlink" x="0px" y="0px"
	 width="269.999px" height="269.999px" viewBox="0 0 269.999 269.999" style="enable-background:new 0 0 269.999 269.999;"
	 xml:space="preserve">
<g>
	<g>
		<path d="M195.396,57.026c1.601-0.8,2.8-3.1,1.9-5.1c-21.2-48.6-79.9,2.3-88.5,48.4c-0.2-32.2-46.5-39.3-53.1-6.3
			c-0.6,2.9,0.8,6.5,4,7.1c3.4,0.7,6.6,1.8,9.8,3c-16.4,16.9-40.1,4.5-35.8-22.4c4.1-25.5,36.7-24,55-18.5c3.5,1,6.4-1.2,7.6-4.3
			c3.1-7.9,9.3-20,9.7-29.8c0.3-0.4,0.5-0.9,0.7-1.4c2.6,0,4.7-3,2.4-5.5c-52.2-59-148.7,53.1-91.6,106.4
			c24,22.399,81.8,16.399,90.4-18.9c-0.3,10.9,2.6,21,10,29C151.396,175.126,216.695,95.426,195.396,57.026z M150.296,95.826
			c-4.101-0.8-6.101-4.1-5.2-8c1.2-5.8,8.7-13.7,14.7-12.8c1.399,0.2,2.7,0.9,3.899,1.7
			C164.896,86.426,160.596,98.026,150.296,95.826z"/>
		<path d="M268.096,171.326c-21.2-17-42.2-34.801-66.9-46.5c-4.6-2.2-8.899,0.5-9.5,5.4c-1.699,15-2.3,30.1-2.6,45.1
			c-55.7,12.3-113.5-8.5-169.6,2c-2.8-2.5-8.1-2.2-9.1,2.399c0,0.2-0.1,0.3-0.1,0.5c-0.7,0.9-0.9,2-0.7,3.101
			c-2.4,9.699-5.7,19.399-0.6,26.8c-4.1,1.399-3.7,8,1.3,8.2c59.9,2.399,119.5-3.9,178.8-11.5c0.1,15.8,0.1,31.5-0.4,47.3
			c0,0.1-0.1,0.1-0.1,0.2c-4.5,7.6,7.3,14.399,11.8,6.899c18.2-30.5,43.9-55.1,67.9-81
			C270.296,178.025,270.896,173.525,268.096,171.326z"/>
	</g>
</g>
<g>
</g>
<g>
</g>
<g>
</g>
<g>
</g>
<g>
</g>
<g>
</g>
<g>
</g>
<g>
</g>
<g>
</g>
<g>
</g>
<g>
</g>
<g>
</g>
<g>
</g>
<g>
</g>
<g>
</g>
</svg>
