<?xml version="1.0" encoding="iso-8859-1"?>
<!-- Generator: Adobe Illustrator 19.0.0, SVG Export Plug-In . SVG Version: 6.00 Build 0)  -->
<svg version="1.1" id="Capa_1" xmlns="http://www.w3.org/2000/svg" xmlns:xlink="http://www.w3.org/1999/xlink" x="0px" y="0px"
	 viewBox="0 0 512 512" style="enable-background:new 0 0 512 512;" xml:space="preserve">
<g>
	<g>
		<path d="M433.886,144.397c0.87-5.385,1.314-10.726,1.314-15.957c0-56.465-45.935-102.4-102.4-102.4
			c-44.134,0-82.372,22.349-98.347,56.508c-12.911-5.308-24.806-5.308-38.187-5.308c-53.7,0-97.877,41.549-102.076,94.191
			C41.557,175.629,0,219.806,0,273.506c0,56.465,45.935,102.4,102.4,102.4h34.133c4.71,0,8.533-3.814,8.533-8.533
			s-3.823-8.533-8.533-8.533H102.4c-47.053,0-85.333-38.281-85.333-85.333c0-47.053,38.281-85.333,85.333-85.333
			c4.71,0,8.533-3.814,8.533-8.533c0-47.053,38.281-85.333,85.333-85.333c16.99,0,26.402,0.324,38.34,7.347
			c2.219,1.297,4.907,1.527,7.322,0.64c2.415-0.905,4.292-2.85,5.103-5.291c10.573-31.727,45.841-53.897,85.768-53.897
			c47.053,0,85.333,38.281,85.333,85.333c0,6.391-0.802,13.022-2.389,19.712c-1.05,4.403,1.536,8.866,5.879,10.146
			c43.17,12.774,73.31,53.137,73.31,98.142c0,56.465-45.935,102.4-102.4,102.4h-25.6c-4.71,0-8.533,3.814-8.533,8.533
			s3.823,8.533,8.533,8.533h25.6c65.877,0,119.467-53.589,119.467-119.467C512,206.545,480.247,161.549,433.886,144.397z"/>
	</g>
</g>
<g>
	<g>
		<path d="M148.949,180.57c-12.638-6.451-27.435-9.463-46.549-9.463c-4.71,0-8.533,3.814-8.533,8.533s3.823,8.533,8.533,8.533
			c16.316,0,28.638,2.415,38.784,7.603c1.237,0.631,2.569,0.93,3.874,0.93c3.106,0,6.101-1.698,7.603-4.651
			C154.812,187.857,153.148,182.711,148.949,180.57z"/>
	</g>
</g>
<g>
	<g>
		<path d="M256,230.839c-47.053,0-85.333,38.281-85.333,85.333s38.281,85.333,85.333,85.333s85.333-38.281,85.333-85.333
			S303.053,230.839,256,230.839z M256,384.439c-37.641,0-68.267-30.626-68.267-68.267c0-37.641,30.626-68.267,68.267-68.267
			c37.641,0,68.267,30.626,68.267,68.267C324.267,353.813,293.641,384.439,256,384.439z"/>
	</g>
</g>
<g>
	<g>
		<path d="M350.293,406.071l-36.634-36.625c-3.328-3.337-8.73-3.337-12.066,0c-3.337,3.337-3.337,8.73,0,12.066l36.634,36.625
			c1.664,1.664,3.849,2.5,6.033,2.5c2.185,0,4.369-0.828,6.033-2.5C353.63,414.801,353.63,409.408,350.293,406.071z"/>
	</g>
</g>
<g>
	<g>
		<path d="M410.633,442.278l-48.273-48.273c-3.2-3.208-8.866-3.2-12.066,0l-24.132,24.141c-3.336,3.337-3.336,8.73,0,12.066
			l48.273,48.265c4.983,4.992,11.546,7.484,18.099,7.484c6.554,0,13.116-2.492,18.099-7.484
			C420.608,468.493,420.608,452.262,410.633,442.278z M398.566,466.411c-3.319,3.337-8.738,3.337-12.066,0l-42.24-42.232
			l12.066-12.075l42.24,42.24C401.894,457.673,401.894,463.083,398.566,466.411z"/>
	</g>
</g>
<g>
	<g>
		<path d="M256,264.973c-28.228,0-51.2,22.963-51.2,51.2c0,4.719,3.823,8.533,8.533,8.533c4.71,0,8.533-3.814,8.533-8.533
			c0-18.825,15.309-34.133,34.133-34.133c4.71,0,8.533-3.814,8.533-8.533S260.71,264.973,256,264.973z"/>
	</g>
</g>
<g>
</g>
<g>
</g>
<g>
</g>
<g>
</g>
<g>
</g>
<g>
</g>
<g>
</g>
<g>
</g>
<g>
</g>
<g>
</g>
<g>
</g>
<g>
</g>
<g>
</g>
<g>
</g>
<g>
</g>
</svg>
