<?xml version="1.0" encoding="iso-8859-1"?>
<!-- Generator: Adobe Illustrator 19.0.0, SVG Export Plug-In . SVG Version: 6.00 Build 0)  -->
<svg version="1.1" id="Layer_1" xmlns="http://www.w3.org/2000/svg" xmlns:xlink="http://www.w3.org/1999/xlink" x="0px" y="0px"
	 viewBox="0 0 512 512" style="enable-background:new 0 0 512 512;" xml:space="preserve">
<!--<path style="fill:#507C5C;" d="M255.997,512c-68.381,0-132.668-26.629-181.02-74.98c-5.669-5.669-5.669-14.862,0-20.533
	c5.671-5.669,14.861-5.669,20.533,0c42.867,42.869,99.863,66.476,160.488,66.476s117.62-23.608,160.488-66.476
	c42.867-42.867,66.476-99.863,66.476-160.488s-23.609-117.62-66.476-160.488c-42.869-42.869-99.863-66.476-160.488-66.476
	S138.377,52.644,95.509,95.512c-57.256,57.256-79.73,141.45-58.65,219.728c2.085,7.742-2.503,15.708-10.244,17.793
	c-7.748,2.088-15.708-2.501-17.795-10.244C-2.68,280.078-2.936,234.853,8.085,192.005c11.355-44.152,34.486-84.618,66.892-117.025
	C123.329,26.629,187.616,0,255.997,0s132.668,26.629,181.02,74.98c48.352,48.352,74.98,112.639,74.98,181.02
	s-26.629,132.667-74.98,181.02C388.665,485.371,324.377,512,255.997,512z"/>-->
<path style="fill:#CFF09E;" d="M255.997,82.472c-95.836,0-173.528,77.69-173.528,173.528s77.69,173.528,173.528,173.528
	S429.525,351.838,429.525,256S351.833,82.472,255.997,82.472z M192.844,245.837c-13.23,0-23.955-15.817-23.955-35.327
	c0-19.511,10.724-35.327,23.955-35.327s23.955,15.817,23.955,35.327S206.072,245.837,192.844,245.837z M319.15,245.837
	c-13.23,0-23.955-15.817-23.955-35.327c0-19.511,10.724-35.327,23.955-35.327s23.955,15.817,23.955,35.327
	S332.379,245.837,319.15,245.837z"/>
<g>
	<path style="fill:#507C5C;" d="M255.997,444.046c-103.689,0-188.044-84.357-188.044-188.046S152.308,67.954,255.997,67.954
		S444.041,152.311,444.041,256S359.686,444.046,255.997,444.046z M255.997,96.99c-87.678,0-159.008,71.331-159.008,159.01
		s71.331,159.01,159.008,159.01S415.005,343.679,415.005,256S343.674,96.99,255.997,96.99z M319.15,260.355
		c-21.572,0-38.473-21.895-38.473-49.845s16.9-49.845,38.473-49.845s38.473,21.895,38.473,49.845S340.722,260.355,319.15,260.355z
		 M319.15,189.702c-3.239,0-9.437,8.104-9.437,20.809c0,12.705,6.198,20.809,9.437,20.809c3.239,0,9.437-8.104,9.437-20.809
		C328.587,197.806,322.389,189.702,319.15,189.702z M192.844,260.355c-21.572,0-38.473-21.895-38.473-49.845
		s16.9-49.845,38.473-49.845s38.473,21.895,38.473,49.845S214.416,260.355,192.844,260.355z M192.844,189.702
		c-3.239,0-9.437,8.104-9.437,20.809c0,12.705,6.198,20.809,9.437,20.809s9.437-8.104,9.437-20.809
		C202.28,197.806,196.083,189.702,192.844,189.702z"/>
	<path style="fill:#507C5C;" d="M255.997,358.195c-25.723,0-49.715-10.202-67.559-28.728c-5.562-5.775-5.391-14.965,0.385-20.528
		c5.774-5.563,14.967-5.389,20.528,0.385c12.32,12.792,28.886,19.836,46.648,19.836s34.328-7.044,46.648-19.836
		c5.563-5.775,14.752-5.945,20.528-0.385c5.775,5.563,5.947,14.753,0.385,20.528C305.712,347.992,281.718,358.195,255.997,358.195z"
		/>
</g>
<g>
</g>
<g>
</g>
<g>
</g>
<g>
</g>
<g>
</g>
<g>
</g>
<g>
</g>
<g>
</g>
<g>
</g>
<g>
</g>
<g>
</g>
<g>
</g>
<g>
</g>
<g>
</g>
<g>
</g>
</svg>
