<?xml version="1.0" encoding="iso-8859-1"?>
<!-- Generator: Adobe Illustrator 19.0.0, SVG Export Plug-In . SVG Version: 6.00 Build 0)  -->
<svg version="1.1" id="Layer_1" xmlns="http://www.w3.org/2000/svg" xmlns:xlink="http://www.w3.org/1999/xlink" x="0px" y="0px"
	 viewBox="0 0 512 512" style="enable-background:new 0 0 512 512;" xml:space="preserve">
<!--<path style="fill:#B3404A;" d="M255.996,512c-68.38,0-132.667-26.629-181.02-74.98c-5.669-5.669-5.669-14.862,0-20.533
	c5.669-5.668,14.862-5.668,20.533,0c42.867,42.867,99.863,66.476,160.488,66.476s117.62-23.609,160.488-66.476
	S482.96,316.624,482.96,256s-23.608-117.62-66.476-160.488S316.62,29.036,255.996,29.036S138.376,52.645,95.509,95.512
	c-57.256,57.256-79.728,141.45-58.65,219.728c2.085,7.742-2.501,15.708-10.244,17.795c-7.74,2.083-15.708-2.501-17.793-10.244
	C-2.68,280.078-2.935,234.855,8.086,192.006c11.355-44.152,34.486-84.62,66.892-117.025C123.328,26.629,187.616,0,255.996,0
	s132.667,26.629,181.02,74.98c48.352,48.352,74.98,112.639,74.98,181.02s-26.629,132.668-74.98,181.02
	C388.663,485.371,324.376,512,255.996,512z"/>-->
<path style="fill:#F4B2B0;" d="M255.996,82.472c-95.836,0-173.528,77.69-173.528,173.528s77.692,173.528,173.528,173.528
	S429.524,351.838,429.524,256S351.832,82.472,255.996,82.472z M192.843,245.837c-13.23,0-23.955-15.817-23.955-35.327
	c0-19.511,10.724-35.327,23.955-35.327c13.23,0,23.955,15.817,23.955,35.327S206.072,245.837,192.843,245.837z M319.149,245.837
	c-13.23,0-23.955-15.817-23.955-35.327c0-19.511,10.724-35.327,23.955-35.327s23.955,15.817,23.955,35.327
	S332.378,245.837,319.149,245.837z"/>
<g>
	<path style="fill:#B3404A;" d="M255.996,444.044C152.307,444.044,67.95,359.689,67.95,256S152.307,67.956,255.996,67.956
		S444.042,152.311,444.042,256S359.685,444.044,255.996,444.044z M255.996,96.992c-87.678,0-159.01,71.331-159.01,159.008
		s71.331,159.008,159.01,159.008S415.006,343.677,415.006,256S343.673,96.992,255.996,96.992z M319.149,260.355
		c-21.574,0-38.473-21.895-38.473-49.846c0-27.95,16.899-49.845,38.473-49.845s38.473,21.895,38.473,49.845
		C357.622,238.461,340.723,260.355,319.149,260.355z M319.149,189.701c-3.24,0-9.437,8.104-9.437,20.809
		c0,12.706,6.196,20.81,9.437,20.81s9.437-8.104,9.437-20.81C328.586,197.805,322.39,189.701,319.149,189.701z M192.843,260.355
		c-21.574,0-38.473-21.895-38.473-49.846c0-27.95,16.899-49.845,38.473-49.845s38.473,21.895,38.473,49.845
		C231.316,238.461,214.417,260.355,192.843,260.355z M192.843,189.701c-3.24,0-9.437,8.104-9.437,20.809
		c0,12.706,6.196,20.81,9.437,20.81s9.437-8.104,9.437-20.81C202.28,197.805,196.083,189.701,192.843,189.701z"/>
	<path style="fill:#B3404A;" d="M313.101,358.195c-3.807,0-7.607-1.487-10.457-4.447c-12.321-12.79-28.888-19.834-46.648-19.834
		s-34.328,7.044-46.648,19.834c-5.563,5.774-14.755,5.947-20.528,0.385c-5.775-5.563-5.947-14.753-0.385-20.528
		c17.846-18.525,41.838-28.727,67.561-28.727s49.715,10.202,67.561,28.727c5.563,5.775,5.391,14.965-0.385,20.528
		C320.356,356.846,316.726,358.195,313.101,358.195z"/>
</g>
<g>
</g>
<g>
</g>
<g>
</g>
<g>
</g>
<g>
</g>
<g>
</g>
<g>
</g>
<g>
</g>
<g>
</g>
<g>
</g>
<g>
</g>
<g>
</g>
<g>
</g>
<g>
</g>
<g>
</g>
</svg>
