<?xml version="1.0" encoding="iso-8859-1"?>
<!-- Generator: Adobe Illustrator 19.0.0, SVG Export Plug-In . SVG Version: 6.00 Build 0)  -->
<svg version="1.1" id="Layer_1" xmlns="http://www.w3.org/2000/svg" xmlns:xlink="http://www.w3.org/1999/xlink" x="0px" y="0px"
	 viewBox="0 0 512 512" style="enable-background:new 0 0 512 512;" xml:space="preserve">
<!--<path style="fill:#FFC61B;" d="M255.997,512c-68.381,0-132.668-26.629-181.02-74.98c-5.669-5.669-5.669-14.862,0-20.533
	c5.671-5.668,14.861-5.668,20.533,0c42.867,42.867,99.863,66.476,160.488,66.476s117.62-23.609,160.488-66.476
	S482.961,316.624,482.961,256s-23.609-117.62-66.476-160.488s-99.863-66.476-160.488-66.476S138.377,52.645,95.509,95.512
	c-57.256,57.256-79.73,141.45-58.65,219.728c2.085,7.742-2.503,15.708-10.244,17.795c-7.748,2.085-15.708-2.503-17.795-10.244
	C-2.68,280.078-2.936,234.855,8.085,192.006c11.355-44.152,34.486-84.62,66.892-117.025C123.329,26.629,187.616,0,255.997,0
	s132.668,26.629,181.02,74.98s74.98,112.639,74.98,181.02s-26.629,132.668-74.98,181.02S324.377,512,255.997,512z"/>-->
<path style="fill:#FEE187;" d="M255.997,82.472c-95.836,0-173.528,77.69-173.528,173.528s77.692,173.528,173.528,173.528
	S429.525,351.838,429.525,256S351.833,82.472,255.997,82.472z M192.844,245.837c-13.23,0-23.955-15.817-23.955-35.327
	c0-19.511,10.724-35.327,23.955-35.327s23.955,15.817,23.955,35.327S206.072,245.837,192.844,245.837z M319.15,245.837
	c-13.23,0-23.955-15.817-23.955-35.327c0-19.511,10.724-35.327,23.955-35.327s23.955,15.817,23.955,35.327
	S332.379,245.837,319.15,245.837z"/>
<g>
	<path style="fill:#FFC61B;" d="M255.997,444.044c-103.689,0-188.046-84.355-188.046-188.044S152.308,67.956,255.997,67.956
		S444.041,152.311,444.041,256S359.686,444.044,255.997,444.044z M255.997,96.992c-87.678,0-159.01,71.331-159.01,159.008
		s71.333,159.008,159.01,159.008S415.005,343.677,415.005,256S343.674,96.992,255.997,96.992z M319.15,260.355
		c-21.572,0-38.473-21.895-38.473-49.846c0-27.95,16.9-49.845,38.473-49.845s38.473,21.895,38.473,49.845
		C357.623,238.461,340.722,260.355,319.15,260.355z M319.15,189.701c-3.239,0-9.437,8.104-9.437,20.809
		c0,12.706,6.198,20.81,9.437,20.81c3.239,0,9.437-8.104,9.437-20.81C328.587,197.805,322.389,189.701,319.15,189.701z
		 M192.844,260.355c-21.572,0-38.473-21.895-38.473-49.846c0-27.95,16.9-49.845,38.473-49.845s38.473,21.895,38.473,49.845
		C231.316,238.461,214.416,260.355,192.844,260.355z M192.844,189.701c-3.239,0-9.437,8.104-9.437,20.809
		c0,12.706,6.198,20.81,9.437,20.81s9.437-8.104,9.437-20.81C202.28,197.805,196.083,189.701,192.844,189.701z"/>
	<path style="fill:#FFC61B;" d="M313.1,336.405H198.893c-8.017,0-14.518-6.501-14.518-14.518c0-8.017,6.501-14.518,14.518-14.518
		H313.1c8.017,0,14.518,6.501,14.518,14.518C327.618,329.904,321.117,336.405,313.1,336.405z"/>
</g>
<g>
</g>
<g>
</g>
<g>
</g>
<g>
</g>
<g>
</g>
<g>
</g>
<g>
</g>
<g>
</g>
<g>
</g>
<g>
</g>
<g>
</g>
<g>
</g>
<g>
</g>
<g>
</g>
<g>
</g>
</svg>
